# xmcd
#
# Track frame offsets:
#	150
#	15292
#	28053
#	44181
#	58934
#	76709
#	94429
#	107651
#	123913
#	138451
#	155357
#	168716
#	187713
#
# Disc length: 2720 seconds
#
# Revision: 0
# Processed by: cddbd v1.5.2PL0 Copyright (c) Steve Scherf et al.
# Submitted via: EasyCDDAExtractor 12.0.1.1
#
DISCID=a70a9e0d
DTITLE=Steff Nevers - Closest To My Heart
DYEAR=2009
DGENRE=Country
TTITLE0=One Beer A Day
TTITLE1=Alphabet Song
TTITLE2=Closest To My Heart
TTITLE3=Party At The Farm
TTITLE4=He's Not Here Saloon
TTITLE5=Stay For A While
TTITLE6=Keep It Up
TTITLE7=Whittle Away
TTITLE8=Higher Ground
TTITLE9=Merle Made Me Do It
TTITLE10=Redneck Rehab
TTITLE11=Let It Rain
TTITLE12=Closest To My Heart (Norwegian Radio Version)
EXTD=
EXTT0=
EXTT1=
EXTT2=
EXTT3=
EXTT4=
EXTT5=
EXTT6=
EXTT7=
EXTT8=
EXTT9=
EXTT10=
EXTT11=
EXTT12=
PLAYORDER=
